<?xml version="1.0" encoding="UTF-8" standalone="no"?>
<!DOCTYPE svg PUBLIC "-//W3C//DTD SVG 1.1//EN"
 "http://www.w3.org/Graphics/SVG/1.1/DTD/svg11.dtd">
<!-- Generated by graphviz version 2.43.0 (0)
 -->
<!-- Title: Mir_0_3 Pages: 1 -->
<svg width="520pt" height="603pt"
 viewBox="0.00 0.00 520.00 603.00" xmlns="http://www.w3.org/2000/svg" xmlns:xlink="http://www.w3.org/1999/xlink">
<g id="graph0" class="graph" transform="scale(1 1) rotate(0) translate(4 599)">
<title>Mir_0_3</title>
<polygon fill="white" stroke="transparent" points="-4,4 -4,-599 516,-599 516,4 -4,4"/>
<text text-anchor="start" x="8" y="-67.8" font-family="Courier, monospace" font-size="14.00">fn main() &#45;&gt; ()</text>
<text text-anchor="start" x="8" y="-52.8" font-family="Courier, monospace" font-size="14.00">let mut _1: std::vec::Vec&lt;i32, std::alloc::Global&gt;;</text>
<text text-anchor="start" x="8" y="-37.8" font-family="Courier, monospace" font-size="14.00">let _2: ();</text>
<text text-anchor="start" x="8" y="-22.8" font-family="Courier, monospace" font-size="14.00">let mut _3: &amp;&#39;?3 mut std::vec::Vec&lt;i32, std::alloc::Global&gt;;</text>
<text text-anchor="start" x="8" y="-7.8" font-family="Courier, monospace" font-size="14.00">debug vec =&gt; _1;</text>
<!-- bb0__0_3 -->
<g id="node1" class="node">
<title>bb0__0_3</title>
<polygon fill="gray" stroke="transparent" points="227.75,-569.5 227.75,-590.5 415.75,-590.5 415.75,-569.5 227.75,-569.5"/>
<polygon fill="none" stroke="black" points="227.75,-569.5 227.75,-590.5 415.75,-590.5 415.75,-569.5 227.75,-569.5"/>
<text text-anchor="start" x="317.25" y="-576.3" font-family="Courier, monospace" font-size="14.00">0</text>
<polygon fill="none" stroke="black" points="227.75,-548.5 227.75,-569.5 415.75,-569.5 415.75,-548.5 227.75,-548.5"/>
<text text-anchor="start" x="230.75" y="-555.3" font-family="Courier, monospace" font-size="14.00">StorageLive(_1)</text>
<polygon fill="none" stroke="black" points="227.75,-527.5 227.75,-548.5 415.75,-548.5 415.75,-527.5 227.75,-527.5"/>
<text text-anchor="start" x="230.75" y="-534.3" font-family="Courier, monospace" font-size="14.00">_1 = Vec::&lt;i32&gt;::new()</text>
</g>
<!-- bb1__0_3 -->
<g id="node2" class="node">
<title>bb1__0_3</title>
<polygon fill="gray" stroke="transparent" points="33.75,-448 33.75,-469 394.75,-469 394.75,-448 33.75,-448"/>
<polygon fill="none" stroke="black" points="33.75,-448 33.75,-469 394.75,-469 394.75,-448 33.75,-448"/>
<text text-anchor="start" x="209.75" y="-454.8" font-family="Courier, monospace" font-size="14.00">1</text>
<polygon fill="none" stroke="black" points="33.75,-382 33.75,-448 394.75,-448 394.75,-382 33.75,-382"/>
<text text-anchor="start" x="36.75" y="-433.8" font-family="Courier, monospace" font-size="14.00">FakeRead(ForLet(None), _1)</text>
<text text-anchor="start" x="36.75" y="-418.8" font-family="Courier, monospace" font-size="14.00">StorageLive(_2)</text>
<text text-anchor="start" x="36.75" y="-403.8" font-family="Courier, monospace" font-size="14.00">StorageLive(_3)</text>
<text text-anchor="start" x="36.75" y="-388.8" font-family="Courier, monospace" font-size="14.00">_3 = &amp;mut _1</text>
<polygon fill="none" stroke="black" points="33.75,-361 33.75,-382 394.75,-382 394.75,-361 33.75,-361"/>
<text text-anchor="start" x="36.75" y="-367.8" font-family="Courier, monospace" font-size="14.00">_2 = Vec::&lt;i32&gt;::push(move _3, const 1_i32)</text>
</g>
<!-- bb0__0_3&#45;&gt;bb1__0_3 -->
<g id="edge1" class="edge">
<title>bb0__0_3&#45;&gt;bb1__0_3</title>
<path fill="none" stroke="black" d="M295.33,-523.64C285.64,-510.85 274.32,-495.92 263.26,-481.32"/>
<polygon fill="black" stroke="black" points="265.98,-479.12 257.15,-473.26 260.4,-483.34 265.98,-479.12"/>
<text text-anchor="middle" x="305.75" y="-494.8" font-family="Courier, monospace" font-size="14.00">return</text>
</g>
<!-- bb5__0_3 -->
<g id="node6" class="node">
<title>bb5__0_3</title>
<polygon fill="lightblue" stroke="transparent" points="297.75,-118.5 297.75,-139.5 394.75,-139.5 394.75,-118.5 297.75,-118.5"/>
<polygon fill="none" stroke="black" points="297.75,-118.5 297.75,-139.5 394.75,-139.5 394.75,-118.5 297.75,-118.5"/>
<text text-anchor="start" x="300.75" y="-125.3" font-family="Courier, monospace" font-size="14.00">5 (cleanup)</text>
<polygon fill="none" stroke="black" points="297.75,-97.5 297.75,-118.5 394.75,-118.5 394.75,-97.5 297.75,-97.5"/>
<text text-anchor="start" x="300.75" y="-104.3" font-family="Courier, monospace" font-size="14.00">resume</text>
</g>
<!-- bb0__0_3&#45;&gt;bb5__0_3 -->
<g id="edge2" class="edge">
<title>bb0__0_3&#45;&gt;bb5__0_3</title>
<path fill="none" stroke="black" d="M372.28,-523.59C387.97,-509.83 403.33,-492.61 411.75,-473 458.74,-363.55 432.42,-322.3 411.75,-205 409.04,-189.63 408.23,-185.1 399.75,-172 394.95,-164.58 388.93,-157.42 382.65,-150.9"/>
<polygon fill="black" stroke="black" points="384.81,-148.11 375.24,-143.56 379.88,-153.09 384.81,-148.11"/>
<text text-anchor="middle" x="461.75" y="-327.8" font-family="Courier, monospace" font-size="14.00">unwind</text>
</g>
<!-- bb2__0_3 -->
<g id="node3" class="node">
<title>bb2__0_3</title>
<polygon fill="gray" stroke="transparent" points="132.75,-280.5 132.75,-301.5 262.75,-301.5 262.75,-280.5 132.75,-280.5"/>
<polygon fill="none" stroke="black" points="132.75,-280.5 132.75,-301.5 262.75,-301.5 262.75,-280.5 132.75,-280.5"/>
<text text-anchor="start" x="193.25" y="-287.3" font-family="Courier, monospace" font-size="14.00">2</text>
<polygon fill="none" stroke="black" points="132.75,-229.5 132.75,-280.5 262.75,-280.5 262.75,-229.5 132.75,-229.5"/>
<text text-anchor="start" x="135.75" y="-266.3" font-family="Courier, monospace" font-size="14.00">StorageDead(_3)</text>
<text text-anchor="start" x="135.75" y="-251.3" font-family="Courier, monospace" font-size="14.00">StorageDead(_2)</text>
<text text-anchor="start" x="135.75" y="-236.3" font-family="Courier, monospace" font-size="14.00">_0 = const ()</text>
<polygon fill="none" stroke="black" points="132.75,-208.5 132.75,-229.5 262.75,-229.5 262.75,-208.5 132.75,-208.5"/>
<text text-anchor="start" x="135.75" y="-215.3" font-family="Courier, monospace" font-size="14.00">drop(_1)</text>
</g>
<!-- bb1__0_3&#45;&gt;bb2__0_3 -->
<g id="edge3" class="edge">
<title>bb1__0_3&#45;&gt;bb2__0_3</title>
<path fill="none" stroke="black" d="M207.93,-356.69C206.59,-343.52 205.16,-329.47 203.81,-316.2"/>
<polygon fill="black" stroke="black" points="207.29,-315.82 202.8,-306.22 200.33,-316.53 207.29,-315.82"/>
<text text-anchor="middle" x="230.75" y="-327.8" font-family="Courier, monospace" font-size="14.00">return</text>
</g>
<!-- bb4__0_3 -->
<g id="node5" class="node">
<title>bb4__0_3</title>
<polygon fill="lightblue" stroke="transparent" points="297.75,-255.5 297.75,-276.5 394.75,-276.5 394.75,-255.5 297.75,-255.5"/>
<polygon fill="none" stroke="black" points="297.75,-255.5 297.75,-276.5 394.75,-276.5 394.75,-255.5 297.75,-255.5"/>
<text text-anchor="start" x="300.75" y="-262.3" font-family="Courier, monospace" font-size="14.00">4 (cleanup)</text>
<polygon fill="none" stroke="black" points="297.75,-234.5 297.75,-255.5 394.75,-255.5 394.75,-234.5 297.75,-234.5"/>
<text text-anchor="start" x="300.75" y="-241.3" font-family="Courier, monospace" font-size="14.00">drop(_1)</text>
</g>
<!-- bb1__0_3&#45;&gt;bb4__0_3 -->
<g id="edge4" class="edge">
<title>bb1__0_3&#45;&gt;bb4__0_3</title>
<path fill="none" stroke="black" d="M261.78,-356.69C281.09,-333.66 302.61,-307.97 319.04,-288.37"/>
<polygon fill="black" stroke="black" points="321.78,-290.55 325.52,-280.64 316.41,-286.06 321.78,-290.55"/>
<text text-anchor="middle" x="312.75" y="-327.8" font-family="Courier, monospace" font-size="14.00">unwind</text>
</g>
<!-- bb3__0_3 -->
<g id="node4" class="node">
<title>bb3__0_3</title>
<polygon fill="gray" stroke="transparent" points="132.75,-128.5 132.75,-149.5 262.75,-149.5 262.75,-128.5 132.75,-128.5"/>
<polygon fill="none" stroke="black" points="132.75,-128.5 132.75,-149.5 262.75,-149.5 262.75,-128.5 132.75,-128.5"/>
<text text-anchor="start" x="193.25" y="-135.3" font-family="Courier, monospace" font-size="14.00">3</text>
<polygon fill="none" stroke="black" points="132.75,-107.5 132.75,-128.5 262.75,-128.5 262.75,-107.5 132.75,-107.5"/>
<text text-anchor="start" x="135.75" y="-114.3" font-family="Courier, monospace" font-size="14.00">StorageDead(_1)</text>
<polygon fill="none" stroke="black" points="132.75,-86.5 132.75,-107.5 262.75,-107.5 262.75,-86.5 132.75,-86.5"/>
<text text-anchor="start" x="135.75" y="-93.3" font-family="Courier, monospace" font-size="14.00">return</text>
</g>
<!-- bb2__0_3&#45;&gt;bb3__0_3 -->
<g id="edge5" class="edge">
<title>bb2__0_3&#45;&gt;bb3__0_3</title>
<path fill="none" stroke="black" d="M197.75,-205C197.75,-191.7 197.75,-177.39 197.75,-164.36"/>
<polygon fill="black" stroke="black" points="201.25,-164.22 197.75,-154.22 194.25,-164.22 201.25,-164.22"/>
<text text-anchor="middle" x="222.75" y="-175.8" font-family="Courier, monospace" font-size="14.00">return</text>
</g>
<!-- bb2__0_3&#45;&gt;bb5__0_3 -->
<g id="edge6" class="edge">
<title>bb2__0_3&#45;&gt;bb5__0_3</title>
<path fill="none" stroke="black" d="M252.02,-205C271.91,-186.86 293.85,-166.84 311.5,-150.74"/>
<polygon fill="black" stroke="black" points="314.25,-152.97 319.28,-143.64 309.54,-147.8 314.25,-152.97"/>
<text text-anchor="middle" x="310.75" y="-175.8" font-family="Courier, monospace" font-size="14.00">unwind</text>
</g>
<!-- bb4__0_3&#45;&gt;bb5__0_3 -->
<g id="edge7" class="edge">
<title>bb4__0_3&#45;&gt;bb5__0_3</title>
<path fill="none" stroke="black" d="M345.75,-230.36C345.75,-209.09 345.75,-177.85 345.75,-153.95"/>
<polygon fill="black" stroke="black" points="349.25,-153.88 345.75,-143.88 342.25,-153.88 349.25,-153.88"/>
<text text-anchor="middle" x="370.75" y="-175.8" font-family="Courier, monospace" font-size="14.00">return</text>
</g>
</g>
</svg>
